# xmcd CD database file
#
# Track frame offsets:
#	150
#	112852
#	178660
#
# Disc length: 3382 seconds
#
# Revision: 0
# Processed by: cddbd v1.5.2PL0 Copyright (c) Steve Scherf et al.
# Submitted via: CDex 1.70beta2
#
DISCID=1b0d3403
DTITLE=John Dikemn - Across the Sky
DYEAR=2011
DGENRE=Jazz
TTITLE0=A Screamin Comes
TTITLE1=Across the Sky
TTITLE2=It Has Happened Before
EXTD=YEAR: 2011
EXTT0=
EXTT1=
EXTT2=
PLAYORDER=
